#!OML:ASF \\sashay\E\Suitcase\Project 1\Capture day 1\Session 1\Male1.ASF
:FULLY-SPECIFIED
:DEGREES
505
root 0.515476 17.233 -7.8415 4.06246 -5.2616 -7.47179
lowerback 2.07408 1.3136 6.90868
upperback -1.19319 2.0335 3.30582
thorax -2.28131 0.930603 -0.536115
lowerneck -14.0199 3.31186 3.56378
upperneck 13.7144 5.86126 -12.4184
head 7.00519 1.95896 -4.02278
rclavicle 1.76297e-014 0
rhumerus -16.2425 -21.6089 -75.1047
rradius 30.8486
rwrist -11.9466
rhand -19.7661 32.6353
rfingers 7.12502
rthumb 6.56559 2.75712
lclavicle 1.76297e-014 0
lhumerus -33.8285 -2.95335 89.0712
lradius 36.8382
lwrist -7.76918
lhand -1.62101 41.8151
lfingers 7.12502
lthumb 24.0369 70.3299
rfemur 14.9112 6.54095 32.7413
rtibia 0.818318
rfoot -9.80106 -6.89742
rtoes 12.6916
lfemur -37.1102 0.222052 -11.8664
ltibia 25.7884
lfoot -10.6581 -2.24949
ltoes 15.1244
506
root 0.529382 17.2213 -7.73064 4.21416 -5.68175 -7.43752
lowerback 1.97418 1.51314 6.84179
upperback -1.3791 2.3008 3.33791
thorax -2.40581 1.05848 -0.474821
lowerneck -13.659 3.06194 3.68045
upperneck 13.8542 5.55875 -12.701
head 6.97197 1.80453 -4.17345
rclavicle -1.40516e-014 -8.34896e-015
rhumerus -16.4713 -21.3489 -74.8824
rradius 31.2343
rwrist -12.1172
rhand -19.8694 32.7274
rfingers 7.12502
rthumb 6.4659 2.84607
lclavicle -1.40516e-014 -8.34896e-015
lhumerus -34.4301 -2.23863 89.072
lradius 36.4418
lwrist -8.35598
lhand -1.05006 41.8126
lfingers 7.12502
lthumb 24.5842 70.254
rfemur 15.6406 6.83775 32.5915
rtibia -1.27222e-014
rfoot -9.40277 -6.81164
rtoes 9.72578
lfemur -36.9516 0.106818 -11.893
ltibia 25.9835
lfoot -10.8487 -1.99541
ltoes 18.1173
507
root 0.54075 17.2173 -7.62596 4.28466 -5.8193 -7.16766
lowerback 1.88532 1.58653 6.56537
upperback -1.42109 2.37994 3.11891
thorax -2.39512 1.10054 -0.54838
lowerneck -13.6495 3.16538 3.93665
upperneck 13.6275 5.61319 -12.6456
head 6.90658 1.85736 -4.18899
rclavicle -2.66744e-014 -1.51076e-014
rhumerus -16.3002 -21.9669 -75.06
rradius 31.3108
rwrist -11.4064
rhand -19.5069 32.9354
rfingers 7.12502
rthumb 6.81583 3.06516
lclavicle -2.66744e-014 -1.51076e-014
lhumerus -34.6165 -1.78966 88.7064
lradius 35.7754
lwrist -8.45486
lhand -1.13626 41.4343
lfingers 7.12502
lthumb 24.5016 69.887
rfemur 15.9624 6.83841 32.1777
rtibia 5.08889e-014
rfoot -9.46099 -6.61429
rtoes 9.92095
lfemur -36.6342 -0.0531239 -12.2241
ltibia 25.9561
lfoot -10.9334 -2.88606
ltoes 15.4826
508
root 0.546755 17.2017 -7.51995 4.63244 -5.80683 -7.78007
lowerback 1.80081 1.6616 7.03206
upperback -1.71864 2.50961 3.29217
thorax -2.63943 1.14616 -0.633379
lowerneck -13.3898 3.12363 3.64997
upperneck 13.8159 5.57565 -12.2868
head 6.89792 1.85656 -4.02983
rclavicle -1.63563e-014 -3.1408e-014
rhumerus -16.3963 -21.7164 -74.9195
rradius 31.3896
rwrist -11.8159
rhand -19.4036 33.2099
rfingers 7.12502
rthumb 6.91555 3.3429
lclavicle -1.63563e-014 -3.1408e-014
lhumerus -35.2935 -1.49108 88.6197
lradius 35.3427
lwrist -8.63929
lhand -1.16056 41.348
lfingers 7.12502
lthumb 24.4783 69.8038
rfemur 15.9743 6.77749 32.7384
rtibia -3.18055e-015
rfoot -9.2981 -6.43663
rtoes 8.35749
lfemur -36.6344 -0.129684 -11.5794
ltibia 26.0406
lfoot -11.3767 -2.96779
ltoes 17.0217
509
root 0.562402 17.2069 -7.40665 4.87473 -5.96968 -7.28568
lowerback 1.44132 1.69726 6.554
upperback -1.74283 2.50606 3.10281
thorax -2.4711 1.15631 -0.553106
lowerneck -13.3758 2.95164 3.90908
upperneck 13.7133 5.3209 -12.5624
head 6.85517 1.72921 -4.19057
rclavicle 2.17421e-016 -2.66371e-014
rhumerus -16.0977 -21.4716 -75.1362
rradius 31.5559
rwrist -12.0204
rhand -19.6039 33.487
rfingers 7.12502
rthumb 6.72221 3.6137
lclavicle 2.17421e-016 -2.66371e-014
lhumerus -35.5461 -1.03585 88.3217
lradius 34.7946
lwrist -8.47894
lhand -0.934475 41.6284
lfingers 7.12502
lthumb 24.695 70.0547
rfemur 14.8175 6.82946 32.0117
rtibia 2.46665
rfoot -10.4011 -6.22656
rtoes 8.95743
lfemur -36.396 -0.296566 -12.1842
ltibia 25.9672
lfoot -10.9624 -3.54948
ltoes 15.7779
510
root 0.571085 17.1912 -7.28961 5.01782 -6.3053 -7.55245
lowerback 1.25782 1.84194 6.70277
upperback -1.63524 2.67822 3.14086
thorax -2.24202 1.24753 -0.592389
lowerneck -14.0465 3.12665 3.41661
upperneck 13.8689 5.53632 -11.7483
head 7.00348 1.84586 -3.8134
rclavicle 1.48405e-014 7.95139e-015
rhumerus -15.6419 -21.84 -75.2764
rradius 31.4984
rwrist -11.4543
rhand -19.4187 33.8659
rfingers 7.12502
rthumb 6.901 3.9984
lclavicle 1.48405e-014 7.95139e-015
lhumerus -35.2552 0.103167 87.887
lradius 33.8801
lwrist -9.26207
lhand -1.06148 41.1337
lfingers 7.12502
lthumb 24.5733 69.5766
rfemur 14.83 7.05215 32.189
rtibia 3.12807
rfoot -10.5896 -5.94936
rtoes 7.61154
lfemur -36.0007 -0.417497 -11.8273
ltibia 25.9673
lfoot -11.1986 -3.76885
ltoes 17.2965
511
root 0.582915 17.1833 -7.17199 5.39887 -6.29591 -7.648
lowerback 1.05679 1.86256 6.83027
upperback -1.88277 2.70499 3.10986
thorax -2.37726 1.25034 -0.692323
lowerneck -13.3962 3.04621 3.27576
upperneck 13.0583 5.35292 -11.6416
head 6.608 1.80802 -3.76782
rclavicle 1.84186e-014 7.55382e-015
rhumerus -15.6206 -21.9609 -75.272
rradius 31.4325
rwrist -11.4992
rhand -3.83274 20.8153
rfingers 7.12502
rthumb 21.9146 -7.96358
lclavicle 1.84186e-014 7.55382e-015
lhumerus -35.5461 0.413353 87.7229
lradius 33.1965
lwrist -9.28146
lhand -0.863791 41.753
lfingers 7.12502
lthumb 24.7628 70.17
rfemur 14.1521 6.98665 32.1272
rtibia 4.4191
rfoot -11.0038 -5.76349
rtoes 7.02623
lfemur -35.8856 -0.842914 -11.6577
ltibia 25.9025
lfoot -10.9335 -4.16401
ltoes 19.4012
512
root 0.60144 17.1788 -7.05063 5.43276 -6.55923 -7.44698
lowerback 1.02717 2.0045 6.67762
upperback -2.08631 2.89748 2.93107
thorax -2.55743 1.33905 -0.799382
lowerneck -13.1463 2.8978 3.43622
upperneck 13.2599 5.12456 -11.5556
head 6.61002 1.71498 -3.7939
rclavicle -1.87603e-015 9.14409e-015
rhumerus -16.0916 -21.9901 -75.2032
rradius 31.7305
rwrist -11.566
rhand -19.6152 33.7394
rfingers 7.12502
rthumb 6.7113 3.86575
lclavicle -1.87603e-015 9.14409e-015
lhumerus -36.4279 0.665155 87.3908
lradius 32.8966
lwrist -9.50466
lhand -0.8866 41.7485
lfingers 7.12502
lthumb 24.7409 70.1685
rfemur 14.2589 7.10931 31.7125
rtibia 4.89736
rfoot -11.1225 -5.5034
rtoes 6.4017
lfemur -35.291 -1.12821 -11.9013
ltibia 25.9619
lfoot -10.8354 -4.36975
ltoes 13.662
513
root 0.615359 17.1618 -6.92899 5.6687 -6.76331 -7.5367
lowerback 0.813462 2.08083 6.81304
upperback -2.08915 2.97942 2.83534
thorax -2.42345 1.37981 -0.965807
lowerneck -13.2117 2.85866 3.22967
upperneck 13.0461 5.02203 -11.1478
head 6.5281 1.69249 -3.63338
rclavicle -2.68546e-014 -2.127e-014
rhumerus -15.7178 -22.4242 -75.3973
rradius 31.5243
rwrist -11.3683
rhand -19.0846 33.7959
rfingers 7.12502
rthumb 7.22353 3.93914
lclavicle -2.68546e-014 -2.127e-014
lhumerus -36.6546 1.28292 86.9075
lradius 32.557
lwrist -9.71962
lhand -0.610945 41.8197
lfingers 7.12502
lthumb 25.0051 70.2032
rfemur 14.0989 7.21518 31.6829
rtibia 5.7613
rfoot -11.3391 -5.34427
rtoes 6.1015
lfemur -34.8666 -1.13545 -11.9096
ltibia 26.0474
lfoot -11.7926 -4.66434
ltoes 17.3376
514
root 0.63151 17.1574 -6.79027 5.94026 -6.75259 -7.35649
lowerback 0.398369 2.07191 6.62831
upperback -2.22866 2.93238 2.77074
thorax -2.34206 1.35949 -0.915565
lowerneck -13.1896 2.96336 3.47518
upperneck 13.0235 5.20091 -11.6695
head 6.55344 1.75065 -3.82685
rclavicle 8.61918e-015 2.16675e-014
rhumerus -15.6971 -22.5996 -75.3849
rradius 31.366
rwrist -11.0655
rhand -18.8997 34.3265
rfingers 7.12502
rthumb 7.40201 4.47598
lclavicle 8.61918e-015 2.16675e-014
lhumerus -36.8887 2.02053 86.4807
lradius 31.5282
lwrist -10.2786
lhand -0.656929 41.0647
lfingers 7.12502
lthumb 24.961 69.4543
rfemur 14.0045 7.11224 31.3179
rtibia 6.21118
rfoot -11.4889 -5.2518
rtoes 4.39863
lfemur -34.4786 -1.38115 -12.2151
ltibia 26.0588
lfoot -12.0605 -5.34261
ltoes 16.8432
515
root 0.643074 17.1362 -6.66324 6.11496 -7.01561 -7.6553
lowerback 0.210896 2.1848 6.85452
upperback -2.32565 3.07473 2.79279
thorax -2.31889 1.42491 -1.01381
lowerneck -12.8578 2.6941 3.31352
upperneck 12.9254 4.7948 -11.3077
head 6.41648 1.58936 -3.72284
rclavicle -7.61656e-014 -3.49861e-014
rhumerus -15.8915 -22.9265 -75.2789
rradius 31.3781
rwrist -10.8002
rhand -18.7168 34.6705
rfingers 7.12502
rthumb 7.57852 4.82632
lclavicle -7.61656e-014 -3.49861e-014
lhumerus -37.5512 2.47121 86.1501
lradius 31.3284
lwrist -10.3473
lhand -0.297028 42.5757
lfingers 7.12502
lthumb 25.3058 70.917
rfemur 14.0051 7.28273 31.4819
rtibia 6.80036
rfoot -11.4176 -4.91928
rtoes 4.3379
lfemur -33.9352 -1.55708 -11.8503
ltibia 26.1065
lfoot -11.9606 -5.74745
ltoes 18.091
516
root 0.669444 17.1373 -6.5224 6.23686 -6.95005 -7.15358
lowerback -0.0299894 2.16297 6.53751
upperback -2.45947 3.02219 2.5366
thorax -2.32584 1.40025 -1.09459
lowerneck -12.8244 2.54584 3.20281
upperneck 12.7987 4.54314 -10.9528
head 6.33842 1.49522 -3.6121
rclavicle -3.75501e-014 -1.47101e-014
rhumerus -15.8192 -23.1986 -75.313
rradius 31.021
rwrist -10.4363
rhand -18.9316 34.8403
rfingers 7.12502
rthumb 7.37118 4.98866
lclavicle -3.75501e-014 -1.47101e-014
lhumerus -37.7234 2.80508 85.7472
lradius 30.4812
lwrist -10.5187
lhand -0.711816 41.7211
lfingers 7.12502
lthumb 24.9084 70.1181
rfemur 14.1943 7.09019 30.6987
rtibia 7.00162
rfoot -11.4051 -4.63299
rtoes 4.03714
lfemur -33.4277 -2.05861 -12.5296
ltibia 25.9723
lfoot -11.2358 -6.03619
ltoes 17.8216
517
root 0.681438 17.1384 -6.40385 6.54501 -7.17959 -7.25797
lowerback -0.121807 2.23468 6.56554
upperback -2.60361 3.11787 2.51291
thorax -2.41488 1.44205 -1.13463
lowerneck -12.898 2.44398 2.91167
upperneck 12.7547 4.39546 -10.578
head 6.31056 1.43789 -3.45525
rclavicle 5.79799e-014 4.49253e-014
rhumerus -15.7896 -22.7991 -75.4503
rradius 31.0434
rwrist -11.1041
rhand -19.0858 34.5583
rfingers 7.12502
rthumb 7.22235 4.70159
lclavicle 5.79799e-014 4.49253e-014
lhumerus -37.8877 3.90585 85.1098
lradius 29.7726
lwrist -11.4462
lhand -0.143697 41.5289
lfingers 7.12502
lthumb 25.4527 69.8493
rfemur 14.1614 7.23775 30.6567
rtibia 7.21378
rfoot -11.021 -4.4078
rtoes 4.68016
lfemur -33.2766 -2.00114 -12.5143
ltibia 25.7393
lfoot -10.1466 -6.12897
ltoes 14.5769
518
root 0.712026 17.1526 -6.26086 6.8503 -7.21853 -6.57953
lowerback -0.932641 2.29284 6.06146
upperback -2.3836 3.10285 2.23629
thorax -1.73961 1.46407 -1.09994
lowerneck -13.3966 2.16299 2.7062
upperneck 12.8019 3.99386 -10.1997
head 6.3699 1.24776 -3.33626
rclavicle 9.47954e-015 -4.77083e-015
rhumerus -15.3215 -23.4786 -75.5962
rradius 30.9522
rwrist -10.6686
rhand -19.0215 34.9523
rfingers 7.12502
rthumb 7.28437 5.09764
lclavicle 9.47954e-015 -4.77083e-015
lhumerus -37.5674 4.62876 84.6645
lradius 28.9217
lwrist -11.9211
lhand -0.132864 41.495
lfingers 7.12502
lthumb 25.4631 69.8139
rfemur 14.1736 7.16393 29.6183
rtibia 7.3274
rfoot -10.7581 -4.06788
rtoes 3.14031
lfemur -33.2086 -1.73954 -13.6892
ltibia 25.3101
lfoot -8.9553 -6.42477
ltoes 11.5075
